# xmcd
#
# Track frame offsets:
#	182
#	14132
#	31972
#	50362
#	64452
#	80332
#	100655
#	119330
#	138312
#	152222
#	168232
#	178550
#
# Disc length: 2663 seconds
#
# Revision: 3
# Processed by: cddbd v1.5.2PL0 Copyright (c) Steve Scherf et al.
# Submitted via: EZCDAudioConverter 7.1.2.1
#
DISCID=9c0a650c
DTITLE=Alabama - Down Home
DYEAR=1994
DGENRE=Country
TTITLE0=Tennessee River
TTITLE1=Food On The Table
TTITLE2=I Want To Know You Before We Make Love
TTITLE3=(She Won't Have A Thing To Do With) Nobody But Me
TTITLE4=You Turn Me On
TTITLE5=The Borderline
TTITLE6=Roll On (Eighteen Wheeler)
TTITLE7=There's No Way
TTITLE8=Down On The River
TTITLE9=If I Had You
TTITLE10=Hangin' Up My Travelin' Shoes
TTITLE11=My Home's In Alabama
EXTD=
EXTT0=
EXTT1=
EXTT2=
EXTT3=
EXTT4=
EXTT5=
EXTT6=
EXTT7=
EXTT8=
EXTT9=
EXTT10=
EXTT11=
PLAYORDER=
